<svg width="24" height="24" viewBox="0 0 24 24" fill="none" xmlns="http://www.w3.org/2000/svg">
  <path fill-rule="evenodd" clip-rule="evenodd" d="M12 5.33667C10.7367 5.33667 9.54841 5.82886 8.6531 6.72183C7.76013 7.61479 7.26794 8.80308 7.26794 10.0687C7.26794 11.3343 7.76013 12.5203 8.6531 13.4156C9.54607 14.3085 10.7344 14.8007 12 14.8007C13.2656 14.8007 14.4515 14.3085 15.3469 13.4156C16.2398 12.5226 16.732 11.3343 16.732 10.0687C16.732 8.80308 16.2398 7.61714 15.3469 6.72183C14.4515 5.82886 13.2633 5.33667 12 5.33667ZM12 13.1272C10.3125 13.1272 8.94141 11.7561 8.94141 10.0686C8.94141 8.3811 10.3125 7.01001 12 7.01001C13.6875 7.01001 15.0586 8.3811 15.0586 10.0686C15.0586 11.7561 13.6875 13.1272 12 13.1272ZM20.4047 6.3187C19.9289 5.36479 19.2539 4.50698 18.3961 3.76636C17.5453 3.03276 16.5656 2.4562 15.4805 2.05073C14.3625 1.63354 13.193 1.42261 12.0024 1.42261H11.9977C10.8071 1.42261 9.63752 1.63354 8.51956 2.05073C7.4344 2.4562 6.45471 3.03276 5.60393 3.76636C4.74612 4.50698 4.06877 5.36714 3.59534 6.3187C3.09846 7.31714 2.84534 8.37417 2.84534 9.45698C2.84534 10.964 3.21565 12.5132 3.9469 14.0625C4.55159 15.3445 5.40706 16.6382 6.49221 17.9085C8.43284 20.182 10.6172 21.8085 11.4656 22.4015C11.6227 22.5117 11.8078 22.5703 12 22.5703C12.1899 22.5703 12.375 22.5117 12.5344 22.4015C13.3828 21.8085 15.5696 20.182 17.5078 17.9085C18.5906 16.6382 19.4485 15.3445 20.0532 14.0625C20.7844 12.5132 21.1547 10.9617 21.1547 9.45698C21.1547 8.37183 20.9016 7.31714 20.4047 6.3187ZM19.479 9.45928C19.479 10.7179 19.1625 12.028 18.5368 13.3522C18 14.496 17.2243 15.6632 16.2352 16.8233C14.6907 18.6351 12.961 20.0202 12 20.7257C11.0391 20.0179 9.30942 18.6351 7.76489 16.8233C6.77583 15.6632 6.00005 14.4937 5.46099 13.3499C4.83521 12.0257 4.5188 10.7155 4.5188 9.45693C4.5188 8.63193 4.71099 7.82568 5.09302 7.06396C5.47036 6.30928 6.00942 5.6249 6.69849 5.02959C7.39692 4.4249 8.20786 3.94912 9.10317 3.61396C10.036 3.26709 11.011 3.09131 11.9977 3.09131H12.0024C12.9915 3.09131 13.9665 3.26709 14.8946 3.61396C15.7922 3.94912 16.6008 4.4249 17.3016 5.02959C17.993 5.6249 18.5321 6.30928 18.9047 7.06396C19.2868 7.83272 19.479 8.63662 19.479 9.45928Z" fill="black" fill-opacity="0.87"/>
</svg>
