<svg xmlns="http://www.w3.org/2000/svg" xmlns:xlink="http://www.w3.org/1999/xlink" width="59" height="32" viewBox="0 0 59 32">
    <defs>
        <path id="uqga7aiima" d="M0 0L48.91 0 48.91 10.642 0 10.642z"/>
    </defs>
    <g fill="none" fill-rule="evenodd">
        <g>
            <g>
                <g>
                    <g transform="translate(-117 -71) translate(117 71) translate(5 11)">
                        <mask id="mgiiu9q0lb" fill="#fff">
                            <use xlink:href="#uqga7aiima"/>
                        </mask>
                        <path fill="#9F1923" fill-rule="nonzero" d="M24.455 10.638c19.36.03 20.456-.087 22.263-.963 1.333-.647 2.192-2.08 2.192-3.696 0-1.41-.672-2.73-1.528-3.37-1.333-.998-2.944-1.462-12.18-2.116-1.533-.108-4.208-.276-7.816-.408C26.306.046 24.933 0 24.456 0c-.477 0-1.852.046-2.93.085-3.61.132-6.284.3-7.816.408C4.474 1.147 2.862 1.611 1.53 2.61.672 3.249 0 4.569 0 5.979c0 1.616.86 3.05 2.193 3.696 1.807.876 2.903.934 22.262.963" mask="url(#mgiiu9q0lb)"/>
                    </g>
                    <path fill="#FFF" fill-rule="nonzero" d="M24.435 10.151c19.275 0 20.04-.003 21.95-.883 1.22-.563 2.031-1.87 2.031-3.344 0-1.11-.474-2.337-1.327-3.01C45.78 1.883 43.954 1.475 35.263.88 33.479.758 30.778.575 27.447.452c-.758-.028-2.559-.08-3.012-.08-.453 0-2.254.052-3.012.08-3.33.123-6.031.306-7.815.428C4.916 1.473 3.09 1.882 1.78 2.915.928 3.587.453 4.814.453 5.924c0 1.475.813 2.781 2.033 3.344 1.908.88 2.674.883 21.949.883" transform="translate(-117 -71) translate(117 71) translate(5 11)"/>
                    <path fill="#9F1923" fill-rule="nonzero" d="M24.526 1.21c5.481 0 16.314.762 18.746 1.389 1.519.39 2.515 1.626 2.515 3.182 0 1.504-1.004 2.733-2.31 3.106-1.74.497-11.58.52-18.951.52-7.37 0-17.21-.023-18.95-.52-1.308-.373-2.312-1.602-2.312-3.105 0-1.557.998-2.792 2.516-3.183C8.211 1.972 19.046 1.21 24.526 1.21" transform="translate(-117 -71) translate(117 71) translate(5 11)"/>
                    <path fill="#FFF" fill-rule="nonzero" d="M20.774 5.277c.035-.113-.024-.205-.133-.205h-1.225c-.108 0-.223.092-.259.205l-.065.26c-.034.113.026.205.134.205h.362c.108 0 .169.092.133.205l-.256.741c-.058.192-.254.348-.438.348h-.953c-.183 0-.284-.156-.225-.348l.893-2.698c.035-.114.15-.205.259-.205h1.226c.109 0 .169.091.134.205-.035.113.025.205.134.205h.443c.109 0 .197-.142.23-.256.154-.499-.08-.759-.506-.825-.25-.04-.29-.04-.968-.04-.678 0-.83.028-1.046.078-.379.087-.564.276-.673.633l-.971 2.919c-.173.567.125 1.026.667 1.026h1.608c.358 0 .74-.303.855-.677l.64-1.776zm4.512-2c.035-.112-.025-.204-.133-.204h-.44c-.107 0-.224.092-.259.205l-.537 1.584c-.035.113-.15.206-.259.206H22.62c-.11 0-.168-.093-.134-.206l.534-1.576c.034-.113-.026-.205-.134-.205h-.44c-.108 0-.224.092-.259.205l-1.414 4.24c-.035.113.025.204.133.204l.438-.003c.108 0 .225-.092.26-.205l.523-1.561c.034-.113.15-.205.258-.205l1.043.003c.108 0 .168.092.134.205l-.526 1.561c-.035.114.024.205.134.205l.437-.003c.109 0 .225-.092.26-.205l1.42-4.244h-.001zm5.343 4.249c-.035.112-.153.204-.262.204h-2.025c-.11 0-.17-.092-.135-.204l1.408-4.154c.036-.114.154-.206.262-.206h.446c.11 0 .171.092.136.206l-1.17 3.458c-.036.113.024.205.134.205h1.168c.11 0 .17.092.135.205l-.097.286zm8.702-.487c.11 0 .17.09.135.204l-.096.284c-.035.112-.15.203-.26.203h-2.065c-.108 0-.168-.09-.134-.203l1.268-3.784c.035-.112.151-.204.261-.204l2.035.156c.11 0 .168.091.134.205l-.086.246c-.035.112-.152.204-.26.204l-1.225-.076c-.108 0-.226.09-.26.204l-.197.568c-.036.112.025.204.134.204l.882.033c.11 0 .169.092.134.204l-.086.247c-.034.113-.151.204-.26.204l-.885-.025c-.107 0-.225.092-.26.204l-.259.718c-.034.112.026.204.134.204h1.216zm-25.13-.005c.11 0 .17.092.136.206l-.097.285c-.035.114-.153.205-.263.205h-2.135c-.11 0-.171-.091-.136-.205l1.349-3.978c.035-.113.152-.206.263-.206l2.131-.081c.11 0 .17.092.136.205l-.116.312c-.035.114-.153.205-.262.205l-1.217.044c-.11 0-.228.09-.263.205l-.247.693c-.034.114.026.205.136.205l.94-.01c.11 0 .17.092.136.205l-.087.249c-.036.113-.154.206-.263.206l-.942.018c-.11 0-.228.092-.264.205l-.292.827c-.036.113.025.205.135.205h1.223zm-7.989.491c-.035.113-.153.205-.264.205h-.453c-.11 0-.17-.092-.136-.205l1.196-3.591c.035-.114.152-.203.26-.198l1.927-.104c.109.004.169.1.133.214l-.101.322c-.036.113-.122.183-.262.197l-1.102.074c-.11-.004-.226.084-.262.198l-.137.45c-.034.114.026.206.137.206l.823-.004c.11 0 .171.092.136.205l-.097.308c-.035.113-.153.205-.264.205l-.836-.002c-.11 0-.229.092-.264.205l-.434 1.315zM27.011 4.07c.034-.112-.025-.202-.133-.202l-.826-.002c-.108 0-.167-.09-.133-.2l.097-.297c.035-.112.15-.203.26-.203l2.685.044c.108 0 .168.09.133.201l-.102.29c-.036.11-.151.2-.26.2l-.658.002c-.11 0-.225.09-.26.201L26.68 7.53c-.036.11-.151.2-.26.2h-.436c-.11 0-.169-.09-.134-.2l1.16-3.459zm5.01 3.456c-.035.113-.149.204-.257.204h-.433c-.107 0-.166-.091-.132-.204l1.336-4.063c.034-.113.15-.203.258-.203l.43.021c.107 0 .167.092.133.204L32.02 7.526zm-16.11.001c-.035.112-.153.203-.265.203h-.448c-.112 0-.173-.09-.137-.203l1.392-4.058c.036-.112.142-.192.266-.203l.451-.006c.111 0 .173.09.137.202l-1.396 4.065zm-4.894-1.596c.45-.047.706-.391.937-1.208.293-1.037-.061-1.294-.668-1.276L9.68 3.54c-.121.01-.226.091-.261.205l-1.25 3.78c-.035.113.025.205.135.205h.442c.11 0 .226-.092.262-.205l.497-1.454c.05-.123.07-.153.22-.153h.182c.15 0 .181.028.204.142l.244 1.465c.022.113.128.205.237.205h.443c.109 0 .18-.092.158-.205l-.23-1.368c-.052-.2-.01-.22.053-.226m-.455-.715h-.569c-.109 0-.17-.092-.135-.205l.172-.533c.035-.113.152-.205.262-.205l.618-.041c.312-.015.421.087.258.486-.182.445-.245.498-.606.498m32.239.852c.35-.051.545-.672.668-1.137.179-.68-.122-.974-.706-1.01l-1.407-.103c-.14.018-.234.133-.268.245l-1.185 3.556c-.034.113.025.204.135.204h.438c.109 0 .226-.09.26-.204l.492-1.39c.05-.122.07-.151.219-.151l.186.017c.149 0 .18.029.201.141l.435 1.383c.033.113.148.204.256.204h.44c.108 0 .17-.09.137-.204l-.404-1.317c-.056-.176-.06-.21.103-.234m-.805-.602l-.363-.032c-.108 0-.168-.092-.133-.204l.165-.499c.036-.113.152-.207.262-.21l.421.036c.309.043.397.084.246.453-.18.444-.25.494-.598.456m-7.212-.254l.455 2.316c.015.12.072.202.181.202h.444c.11 0 .228-.09.263-.202l1.308-3.84c.036-.113-.025-.204-.134-.204l-.442-.022c-.11 0-.227.09-.262.203l-.684 2.024c-.086.221-.198.238-.247-.015l-.396-2.082c-.022-.132-.083-.206-.227-.214l-.516-.025c-.11 0-.228.09-.262.203l-1.343 3.972c-.035.112.026.202.135.202h.445c.109 0 .226-.09.262-.202l.784-2.326c.096-.232.202-.178.236.01" transform="translate(-117 -71) translate(117 71) translate(5 11)"/>
                </g>
            </g>
        </g>
    </g>
</svg>
