<svg xmlns="http://www.w3.org/2000/svg" xmlns:xlink="http://www.w3.org/1999/xlink" width="24" height="24" viewBox="0 0 32 32">
    <defs>
        <path id="6zpda6wcja" d="M0 0L27.972 0 27.972 6.086 0 6.086z"/>
    </defs>
    <g fill="none" fill-rule="evenodd">
        <g>
            <g>
                <g>
                    <g transform="translate(-421 -24) translate(421 24) translate(2 13)">
                        <mask id="5ypd5bxqcb" fill="#fff">
                            <use xlink:href="#6zpda6wcja"/>
                        </mask>
                        <path fill="#9F1923" fill-rule="nonzero" d="M13.986 6.084c11.072.017 11.698-.05 12.732-.551.762-.37 1.254-1.19 1.254-2.114 0-.807-.385-1.56-.875-1.927-.762-.57-1.683-.836-6.966-1.21-.876-.062-2.405-.158-4.469-.233C15.044.026 14.259 0 13.986 0c-.273 0-1.059.026-1.676.049-2.064.075-3.593.171-4.47.233C2.56.656 1.638.922.876 1.492.385 1.858 0 2.612 0 3.419c0 .925.492 1.744 1.254 2.114 1.034.501 1.66.534 12.732.551" mask="url(#5ypd5bxqcb)"/>
                    </g>
                    <path fill="#FFF" fill-rule="nonzero" d="M13.974 5.805c11.024 0 11.461-.001 12.553-.505.698-.322 1.162-1.069 1.162-1.912 0-.635-.271-1.336-.76-1.721-.747-.59-1.792-.824-6.762-1.164-1.02-.07-2.565-.174-4.47-.244-.434-.017-1.464-.046-1.723-.046-.259 0-1.289.03-1.722.046-1.905.07-3.45.175-4.47.244-4.97.34-6.015.574-6.764 1.164C.531 2.052.26 2.753.26 3.387c0 .844.465 1.591 1.163 1.913 1.09.504 1.529.505 12.552.505" transform="translate(-421 -24) translate(421 24) translate(2 13)"/>
                    <path fill="#9F1923" fill-rule="nonzero" d="M14.026.692c3.135 0 9.33.436 10.721.794.869.224 1.438.93 1.438 1.82 0 .86-.574 1.563-1.32 1.777-.996.284-6.624.296-10.839.296-4.215 0-9.842-.012-10.838-.296-.747-.214-1.321-.917-1.321-1.777 0-.89.57-1.596 1.439-1.82 1.39-.358 7.586-.794 10.72-.794" transform="translate(-421 -24) translate(421 24) translate(2 13)"/>
                    <path fill="#FFF" fill-rule="nonzero" d="M11.88 3.018c.02-.065-.013-.117-.076-.117h-.7c-.062 0-.128.052-.148.117l-.037.149c-.02.064.014.117.076.117h.208c.06 0 .096.052.076.117l-.147.424c-.033.11-.145.199-.25.199h-.545c-.105 0-.163-.09-.13-.2l.511-1.542c.02-.065.087-.117.148-.117h.702c.062 0 .096.052.076.117-.02.065.015.117.077.117h.253c.062 0 .113-.081.132-.146.088-.286-.045-.434-.29-.472-.143-.023-.166-.023-.553-.023-.388 0-.475.016-.598.044-.217.05-.323.159-.385.363l-.555 1.669c-.1.324.071.587.38.587h.92c.205 0 .423-.173.49-.387l.366-1.016zm2.581-1.143c.02-.065-.014-.117-.076-.117h-.252c-.061 0-.128.052-.148.117l-.307.905c-.02.065-.086.118-.148.118h-.594c-.062 0-.096-.053-.076-.118l.305-.9c.02-.065-.015-.118-.076-.118h-.252c-.062 0-.128.053-.148.117l-.81 2.425c-.02.064.015.117.077.117l.25-.002c.063 0 .129-.053.15-.117l.298-.893c.02-.065.086-.117.148-.117l.596.002c.062 0 .097.052.077.117l-.3.893c-.02.064.013.117.076.117l.25-.002c.062 0 .128-.053.148-.117l.812-2.427zm3.056 2.429c-.02.064-.088.117-.15.117h-1.158c-.063 0-.098-.053-.077-.117l.805-2.376c.02-.065.088-.117.15-.117h.255c.063 0 .097.052.077.117l-.67 1.978c-.02.065.015.117.078.117h.668c.063 0 .097.053.077.118l-.055.163zm4.976-.279c.063 0 .097.052.077.117l-.054.162c-.02.065-.087.117-.15.117h-1.18c-.062 0-.096-.052-.077-.117l.726-2.163c.02-.065.086-.117.149-.117l1.163.09c.063 0 .097.051.077.116l-.05.141c-.02.064-.086.117-.148.117l-.7-.044c-.062 0-.13.052-.15.117l-.112.325c-.02.064.015.116.077.116l.504.02c.063 0 .097.052.077.116l-.05.141c-.019.065-.086.117-.148.117l-.506-.014c-.061 0-.128.052-.148.116l-.149.41c-.02.065.015.117.077.117h.695zM8.122 4.023c.063 0 .097.052.077.117l-.055.164c-.02.064-.088.117-.15.117H6.771c-.063 0-.098-.053-.077-.117l.77-2.276c.021-.064.088-.117.151-.117l1.22-.047c.062 0 .097.053.077.118l-.066.178c-.02.065-.088.117-.15.117L8 2.302c-.063 0-.13.052-.15.118l-.142.396c-.02.065.015.117.078.117l.537-.005c.064 0 .098.052.078.117l-.05.142c-.02.065-.087.118-.15.118l-.539.01c-.063 0-.13.053-.15.118l-.168.472c-.02.065.015.118.078.118h.699zm-4.57.28c-.02.065-.087.118-.15.118h-.26c-.062 0-.097-.053-.077-.117l.684-2.054c.02-.065.086-.116.149-.113L5 2.077c.062.003.096.057.076.123l-.058.184c-.02.065-.07.104-.15.112l-.63.043c-.063-.003-.13.048-.15.113l-.078.258c-.02.064.014.117.078.117l.47-.002c.064 0 .099.053.078.117l-.055.176c-.02.065-.088.118-.151.118l-.478-.002c-.063 0-.131.053-.151.117l-.248.753zm11.895-1.975c.02-.064-.014-.116-.075-.116h-.473c-.062 0-.096-.052-.076-.116l.056-.17c.02-.063.086-.115.148-.115l1.536.025c.061 0 .096.051.076.115l-.059.165c-.02.064-.086.115-.149.115l-.376.001c-.062 0-.128.051-.148.115l-.649 1.959c-.02.063-.086.115-.149.115h-.249c-.062 0-.096-.052-.077-.115l.664-1.978zm2.865 1.976c-.02.065-.085.117-.146.117h-.248c-.061 0-.095-.052-.075-.117l.764-2.324c.02-.064.085-.116.147-.116l.246.012c.061 0 .096.053.076.117l-.764 2.311zm-9.212 0c-.02.065-.088.117-.152.117h-.256c-.064 0-.1-.052-.079-.116l.796-2.321c.02-.064.082-.11.152-.116l.259-.004c.063 0 .098.052.078.116L9.1 4.305zm-2.8-.912c.258-.027.404-.224.536-.69.168-.594-.035-.741-.382-.73l-.917.052c-.07.007-.13.053-.15.118l-.715 2.162c-.02.064.015.117.078.117h.252c.063 0 .13-.053.15-.117l.284-.832c.03-.07.04-.088.126-.088h.104c.086 0 .104.016.117.082l.14.838c.012.064.073.117.135.117h.253c.063 0 .104-.053.091-.117L6.27 3.52c-.03-.114-.005-.126.03-.13m-.26-.408h-.325c-.062 0-.097-.053-.077-.117l.098-.305c.02-.065.087-.117.15-.117l.354-.024c.178-.008.24.05.147.278-.104.254-.14.285-.346.285m18.437.487c.2-.03.311-.384.381-.65.103-.389-.07-.557-.403-.577l-.805-.06c-.08.01-.133.076-.153.14l-.678 2.034c-.02.065.015.117.077.117h.251c.062 0 .13-.052.15-.117l.28-.794c.03-.07.04-.087.125-.087l.107.01c.085 0 .103.016.115.08l.249.791c.018.065.084.117.146.117h.251c.062 0 .098-.052.079-.117l-.231-.753c-.032-.1-.034-.12.059-.134m-.46-.344l-.208-.019c-.062 0-.096-.052-.076-.116l.094-.285c.02-.065.087-.119.15-.12l.24.02c.177.025.228.048.142.26-.104.253-.144.282-.342.26m-4.125-.145l.26 1.324c.009.069.041.116.104.116h.254c.062 0 .13-.052.15-.116l.748-2.196c.02-.064-.014-.116-.077-.116l-.252-.013c-.063 0-.13.052-.15.116l-.392 1.158c-.048.126-.113.136-.14-.009l-.227-1.19c-.013-.076-.048-.119-.13-.123l-.295-.015c-.063 0-.13.052-.15.117l-.768 2.271c-.02.064.015.116.077.116h.254c.063 0 .13-.052.15-.116l.449-1.33c.055-.133.116-.102.135.006" transform="translate(-421 -24) translate(421 24) translate(2 13)"/>
                </g>
            </g>
        </g>
    </g>
</svg>
