<svg xmlns="http://www.w3.org/2000/svg" width="24" height="24" viewBox="0 0 32 32">
    <g fill="none" fill-rule="evenodd">
        <g>
            <g>
                <g fill-rule="nonzero">
                    <path fill="#FEFEFE" d="M9.738 5.617c.003.158 3.175 5.606 3.263 5.606.076 0 3.04-5.06 3.21-5.48.066-.165-.09-.466-1.533-2.968-1.063-2.008-4.614 1.185-4.94 2.842zm8.19 20.225c.321-.092.631-.393.743-.72.05-.144.087-.512.084-.82-.008-.728-.162-1.047-.616-1.276-.314-.157-.416-.166-1.955-.174-.893-.005-1.695-.035-1.781-.066-.198-.071-.267-.28-.174-.526l.072-.19 2.112-.019 2.11-.02.014-.525.013-.526h-2.43c-1.824-.012-3.224-.154-3.228 1.4-.001.873.09 1.143.461 1.374.251.156.352.166 2.112.2l1.848.036.07.197c.046.133.041.256-.016.38l-.084.185h-2.132c-1.62 0-2.15.022-2.205.09-.056.072-.068.578-.024 1.017.008.081 4.718.065 5.006-.017zm6.902-.003c.474-.09.81-.31 1.007-.66.137-.245.148-.386.148-1.822 0-1.494-.006-1.568-.163-1.804-.092-.139-.322-.326-.526-.428-.362-.18-.367-.181-2.466-.181-1.842 0-2.146.016-2.438.128-.754.292-.886.639-.892 2.338-.004 1.462.043 1.695.42 2.06.402.39.67.433 2.7.438 1.002.003 1.997-.028 2.21-.069zm-3.462-1.063c-.421-.058-.494-.226-.523-1.204-.034-1.128.04-1.398.409-1.5.32-.09 2.457-.096 2.906-.01.172.034.345.092.382.13.13.13.221.996.172 1.637-.077.99-.02.958-1.714.969-.772.005-1.506-.005-1.632-.022zm-11.69-7.732c.103-.08 2.692-4.54 3.095-5.332l.157-.308H9.715c-2.463 0-3.243.021-3.332.09-.064.05-.743 1.185-1.508 2.522L3.31 16.748c-.126.22-.15.313-.084.34.05.02 1.496.038 3.214.041 2.396.005 3.15-.015 3.24-.085zm13.072.047c.098-.037.09-.084-.06-.344l-1.565-2.731c-.765-1.337-1.444-2.471-1.508-2.521-.089-.07-.87-.091-3.332-.091H13.07l.157.308c.403.791 2.992 5.252 3.094 5.332.089.07.846.091 3.216.091 1.705 0 3.15-.02 3.213-.044z" transform="translate(-80 -24) translate(80 24) translate(3 3)"/>
                    <path fill="#9E9E9E" d="M4.862 17.097c.89-.02 2.327-.02 3.192 0 .865.02.136.036-1.62.036-1.755 0-2.463-.016-1.572-.036zm13.13 0c.89-.02 2.327-.02 3.192 0 .865.02.137.036-1.619.036-1.755 0-2.463-.016-1.573-.036zM8.09 11.44c.91-.02 2.38-.02 3.265 0 .885.02.14.036-1.656.036-1.795 0-2.52-.016-1.609-.036zm6.602 0c.91-.02 2.38-.02 3.264 0 .885.02.14.036-1.655.036-1.796 0-2.52-.016-1.61-.036z" transform="translate(-80 -24) translate(80 24) translate(3 3)"/>
                    <path fill="#FB0202" d="M3.233 16.954c.074-.193 2.967-5.22 3.08-5.35.1-.118.35-.127 3.325-.127 1.77 0 3.217.015 3.217.033 0 .064-2.996 5.299-3.105 5.426-.101.117-.353.127-3.334.127-2.833 0-3.22-.014-3.183-.109zm13.017-.018c-.109-.127-3.105-5.362-3.105-5.426 0-.018 1.448-.033 3.217-.033 2.974 0 3.225.01 3.326.127.112.13 3.005 5.157 3.08 5.35.036.095-.351.108-3.184.108-2.98 0-3.233-.01-3.334-.126zM11.39 8.52c-.866-1.506-1.592-2.787-1.614-2.847C9.73 5.543 12.878.051 13 .051c.122 0 3.271 5.492 3.223 5.622-.068.184-3.184 5.586-3.223 5.586-.02 0-.744-1.233-1.61-2.739z" transform="translate(-80 -24) translate(80 24) translate(3 3)"/>
                    <path fill="#343334" d="M7.317 25.881c-.455-.122-.704-.31-.879-.662-.127-.256-.145-.484-.172-2.229l-.03-1.943.643.02.644.022.02 1.749c.018 1.667.026 1.755.17 1.886.132.12.295.14 1.277.16 1.272.027 1.491-.023 1.611-.367.046-.131.078-.883.078-1.843v-1.622h1.233l-.002 1.941c-.001 1.736-.016 1.972-.136 2.238-.171.376-.472.591-.954.683-.557.105-3.076.082-3.503-.033zm5.64-.035c-.016-.016-.03-.253-.03-.526v-.495h2.109c1.315 0 2.161-.028 2.249-.075.102-.055.14-.153.14-.359 0-.492-.07-.51-2.029-.51-1.48 0-1.74-.016-1.96-.126-.415-.207-.519-.503-.494-1.41.029-.646.05-1.098.707-1.293.145-.04 1.268-.071 2.561-.072h2.303v1.016h-2.015c-2.23 0-2.337.02-2.337.434 0 .42.068.436 1.837.436.885 0 1.73.035 1.878.076.427.118.683.38.785.803.11.462.059 1.259-.102 1.57-.252.488-.24.485-3.04.525-1.393.02-2.545.023-2.561.006zm7.886-.007c-.562-.078-.949-.316-1.14-.7-.122-.245-.138-.447-.138-1.729 0-1.393.007-1.463.172-1.75.337-.589.981-.75 2.984-.748 2.18.003 2.86.165 3.123.743.12.266.138.483.138 1.719 0 1.225-.018 1.454-.135 1.712-.144.318-.397.532-.805.679-.312.113-3.515.17-4.199.074zm3.401-1.038c.29-.076.338-.117.422-.375.065-.195.088-.581.073-1.177-.03-1.19-.044-1.203-1.168-1.253-.447-.02-1.184-.02-1.637 0-1.115.049-1.1.028-1.1 1.414 0 1.27.026 1.318.726 1.408.701.09 2.311.08 2.684-.017zM.014 23.41V20.98h5.369v1.086l-2.05.02-2.049.018v.943l1.94.02 1.941.02v.938l-1.94.019-1.941.02-.02.888-.02.888H.014v-2.43z" transform="translate(-80 -24) translate(80 24) translate(3 3)"/>
                </g>
            </g>
        </g>
    </g>
</svg>
