<svg xmlns="http://www.w3.org/2000/svg" width="32" height="32" viewBox="0 0 32 32">
    <g fill="none" fill-rule="evenodd">
        <g>
            <g>
                <g fill-rule="nonzero">
                    <path fill="#E0922F" d="M11.367 13.01L14 14.578l2.633-1.568v6.168c-.865.107-1.767.142-2.633.142-.866 0-1.767-.035-2.633-.142V13.01zM14 1.6c-.685 0-2.38 1.177-2.38 1.177-.414.261-.811.547-1.19.856L14 5.736l3.571-2.103c-.38-.309-.777-.595-1.19-.856 0 0-1.695-1.177-2.38-1.177zm2.633 8.7V6.877L14 8.482l-2.633-1.605V10.3L14 11.868l2.633-1.568zM1.556 15.969v.143c.036.035.072.106.108.142.325.321 1.262.749 1.262.749.686.285 1.37.57 2.056.82l.145-8.807c-1.263 1.676-2.345 3.566-3.175 5.527 0 0-.396.926-.396 1.426zM18.978 4.774v4.135l2.597-1.533c-.83-.927-1.66-1.782-2.597-2.602zm3.896 4.242l.108 8.807c.721-.25 1.406-.535 2.092-.82 0 0 .938-.428 1.263-.75.036-.035.072-.106.107-.141v-.143c0-.5-.396-1.426-.396-1.426-.83-1.961-1.912-3.851-3.174-5.527zm-3.896 9.84c.577-.106 1.118-.213 1.66-.356-.037-3.137-.109-7.808-.109-7.808l-1.551.927v7.238zm-9.956 0V11.62l-1.55-.927s-.073 4.67-.109 7.808c.541.143 1.082.25 1.66.357zm0-14.082c-.938.82-1.767 1.675-2.597 2.602L9.022 8.91V4.774z" transform="translate(-248 -24) translate(248 24) translate(2 5)"/>
                    <path fill="#FFF" d="M16.707 2.386S14.783 1.08 14 1.08c-.783 0-2.707 1.307-2.707 1.307C7.02 5.354 3.601 9.49 1.571 14.33c0 0-.534 1.2-.534 1.801 0 .106 0 .142.036.213.035.07.071.14.107.176.427.46 1.638.99 1.638.99C6.237 18.994 10.048 19.84 14 19.84c3.953 0 7.764-.847 11.183-2.331 0 0 1.21-.53 1.638-.99.035-.035.07-.106.107-.176.035-.071.035-.107.035-.213 0-.6-.534-1.801-.534-1.801-2.03-4.841-5.449-8.976-9.722-11.944zm1.851 1.697c1.255 1.033 2.412 2.18 3.455 3.427l-3.455 2.085V4.083zm-7.122-1.52S13.252 1.326 14 1.326s2.564 1.237 2.564 1.237c.57.389 1.069.777 1.603 1.201L14 6.238 9.833 3.764c.535-.424 1.033-.812 1.603-1.2zm-1.994 1.52v5.512L5.987 7.51c1.043-1.247 2.2-2.394 3.455-3.427zM5.453 18.287c-.855-.283-1.71-.6-2.529-.99 0 0-1.103-.459-1.495-.883-.036-.035-.071-.106-.107-.141-.036-.07-.036-.141-.036-.212 0-.53.463-1.66.463-1.66.998-2.333 2.315-4.488 3.882-6.432l-.178 10.318zm3.989.954c-.82-.142-1.603-.283-2.386-.495l.142-8.657 2.244 1.343v7.809zm7.514.247c-.962.07-1.959.142-2.956.142-.997 0-1.994-.071-2.956-.142v-7.102L14 14.153l2.956-1.767v7.102zm1.602-.247v-7.81l2.244-1.342.143 8.657c-.784.212-1.567.353-2.387.495zm2.6-.565L21.016 9.7l-2.671 1.59v7.985c-.392.071-.783.142-1.175.177v-7.456L14 13.905l-3.17-1.908v7.456c-.391-.035-.783-.106-1.175-.177v-7.985L6.985 9.7l-.143 8.975c-.392-.106-.784-.212-1.14-.318l.143-10.671 3.81 2.26V3.906L14 6.485l4.345-2.58v6.043l3.81-2.261.143 10.67c-.356.107-.748.213-1.14.319zm5.52-2.403c-.035.035-.07.106-.107.141-.391.424-1.495.883-1.495.883-.82.39-1.674.707-2.564.99l-.143-10.318c1.567 1.943 2.885 4.1 3.882 6.43 0 0 .463 1.131.463 1.662 0 .07 0 .141-.036.212z" transform="translate(-248 -24) translate(248 24) translate(2 5)"/>
                    <path fill="#000" d="M27.316 14.115C25.193 9.038 21.63 4.717 17.167 1.62c0 0-2.232-1.584-3.167-1.584-.936 0-3.167 1.584-3.167 1.584C6.37 4.717 2.807 9.038.683 14.115c0 0-.683 1.656-.683 2.484 0 .072 0 .18.036.252.036.108.072.18.144.252.576.577 2.195 1.297 2.195 1.297C5.938 19.984 9.861 20.884 14 20.884s8.062-.9 11.624-2.484c0 0 1.62-.72 2.196-1.297.072-.072.108-.144.144-.252.036-.072.036-.18.036-.252 0-.828-.684-2.484-.684-2.484zm-.252 2.376c-.036.072-.072.144-.108.18-.432.468-1.655 1.008-1.655 1.008-3.455 1.512-7.306 2.376-11.3 2.376-3.996 0-7.847-.864-11.302-2.376 0 0-1.223-.54-1.655-1.008-.036-.036-.072-.108-.108-.18C.9 16.419.9 16.383.9 16.275c0-.612.54-1.836.54-1.836 2.05-4.933 5.506-9.146 9.825-12.17 0 0 1.943-1.332 2.735-1.332.792 0 2.735 1.332 2.735 1.332 4.319 3.024 7.774 7.237 9.825 12.17 0 0 .54 1.224.54 1.836 0 .108 0 .144-.036.216z" transform="translate(-248 -24) translate(248 24) translate(2 5)"/>
                    <path fill="#000" d="M18.344 9.761V3.685L14 6.279 9.656 3.685V9.76l-3.81-2.274-.142 10.732c.355.106.747.213 1.139.32l.142-9.026 2.67 1.599v8.03c.393.072.784.143 1.176.178v-7.498L14 13.742l3.17-1.92v7.498c.39-.035.782-.106 1.174-.177v-8.031l2.67-1.6.143 9.027c.392-.107.783-.214 1.14-.32l-.143-10.732-3.81 2.274zm-1.175.711L14 12.391l-3.169-1.919V5.746L14 7.63l3.17-1.884v4.726z" transform="translate(-248 -24) translate(248 24) translate(2 5)"/>
                </g>
            </g>
        </g>
    </g>
</svg>
