<svg xmlns="http://www.w3.org/2000/svg" width="24" height="24" viewBox="0 0 32 32">
    <g fill="none" fill-rule="evenodd">
        <g>
            <g>
                <g fill="#4D4D4D" fill-rule="nonzero">
                    <path d="M14 0c7.732 0 14 6.268 14 14s-6.268 14-14 14S0 21.732 0 14 6.268 0 14 0zm.111 16.322l-10.69 4.389C5.644 24.207 9.55 26.526 14 26.526c4.5 0 8.446-2.372 10.654-5.934l-10.543-4.27zM13.71 1.477C6.925 1.632 1.474 7.179 1.474 14c0 2.165.549 4.202 1.517 5.98l9.15-7.105L13.71 1.477zm.826.008l1.592 11.39 8.98 6.922c.935-1.79 1.422-3.778 1.42-5.797 0-6.739-5.322-12.234-11.992-12.514v-.001z" transform="translate(-136 -24) translate(136 24) translate(2 2)"/>
                </g>
            </g>
        </g>
    </g>
</svg>
