<svg xmlns="http://www.w3.org/2000/svg" width="24" height="24" viewBox="0 0 32 32">
    <g fill="none" fill-rule="evenodd">
        <g>
            <g>
                <g fill-rule="nonzero">
                    <path fill="#FEFEFE" d="M9.433 7.864c.005.221 4.445 7.848 4.568 7.848.107 0 4.257-7.084 4.494-7.671.093-.231-.125-.653-2.145-4.156-1.49-2.812-6.46 1.66-6.917 3.98zM9.35 23.862c.144-.112 3.768-6.357 4.333-7.465l.22-.431H9.4c-3.447 0-4.54.03-4.664.127-.09.07-1.04 1.658-2.11 3.529L.432 23.448c-.177.307-.21.437-.118.474.07.028 2.094.055 4.5.059 3.354.006 4.41-.022 4.535-.119zm18.3.066c.138-.053.126-.118-.084-.482l-2.191-3.824c-1.072-1.871-2.021-3.46-2.11-3.53-.125-.097-1.218-.126-4.665-.126h-4.503l.22.431c.565 1.108 4.19 7.353 4.333 7.465.124.097 1.184.127 4.502.127 2.386 0 4.41-.027 4.498-.06z" transform="translate(-192 -24) translate(192 24) translate(2 3)"/>
                    <path fill="#9E9E9E" d="M2.607 23.936c1.246-.028 3.257-.028 4.468 0 1.211.028.191.05-2.266.05-2.458 0-3.45-.022-2.202-.05zm18.382 0c1.247-.028 3.258-.028 4.47 0 1.21.028.19.05-2.268.05-2.457 0-3.448-.022-2.202-.05zM7.126 16.014c1.275-.028 3.331-.028 4.57 0 1.24.028.197.05-2.317.05-2.514 0-3.528-.022-2.253-.05zm9.242 0c1.275-.028 3.332-.028 4.57 0 1.24.028.197.05-2.317.05-2.514 0-3.527-.022-2.253-.05z" transform="translate(-192 -24) translate(192 24) translate(2 3)"/>
                    <path fill="#FB0202" d="M.326 23.736c.103-.27 4.153-7.307 4.311-7.491.14-.164.492-.178 4.656-.178 2.477 0 4.504.022 4.504.048 0 .089-4.194 7.417-4.347 7.595-.142.164-.494.177-4.668.177-3.965 0-4.508-.018-4.456-.151zm18.224-.026c-.153-.178-4.347-7.506-4.347-7.595 0-.026 2.027-.048 4.504-.048 4.164 0 4.515.014 4.656.178.158.184 4.208 7.22 4.311 7.49.052.134-.49.152-4.456.152-4.174 0-4.526-.013-4.668-.177zm-6.804-11.782C10.534 9.82 9.518 8.026 9.487 7.942 9.421 7.76 13.829.072 14 .072c.17 0 4.58 7.689 4.513 7.87-.095.258-4.459 7.82-4.513 7.82-.028 0-1.042-1.725-2.254-3.834z" transform="translate(-192 -24) translate(192 24) translate(2 3)"/>
                </g>
            </g>
        </g>
    </g>
</svg>
