<svg xmlns="http://www.w3.org/2000/svg" width="59" height="32" viewBox="0 0 59 32">
    <g fill="none" fill-rule="evenodd">
        <g fill-rule="nonzero">
            <g>
                <g>
                    <path fill="#000" d="M46.974 0c.366 0 .707.186.889.507.124.218.163.448.12.702-.032.187-.74 3.025-1.474 4.933-.3.786-.55 1.358-.638 1.533-.21.429-.614.727-1.138.811-5.506.887-29.755 1.724-40.613 1.774-.991.004-1.39-.144-1.604-.253-.445-.226-.628-.785-.687-1.021L.11 2.484C-.171 1.467.146.89.443.57.945.025 1.5.001 2.94 0h44.033zm-.086.366H3.075C1.572.368 1.145.4.733.838c-.373.398-.46.928-.266 1.618l1.714 6.39c.038.153.189.652.54.828.189.094.54.22 1.431.22l.043-.001c11.42-.05 35.037-.884 40.416-1.738.426-.068.756-.298.931-.648.084-.166.327-.715.625-1.482.712-1.828 1.42-4.609 1.454-4.794.032-.186.004-.347-.087-.505-.128-.222-.375-.36-.646-.36z" transform="translate(-21 -71) translate(21 71) translate(6 11)"/>
                    <path fill="#9C1006" d="M46.895.672c.162 0 .302.076.375.202.055.096.069.182.05.291-.048.245-.743 2.961-1.441 4.754-.306.788-.546 1.324-.615 1.461-.128.258-.377.428-.7.48-5.528.878-30.208 1.694-40.469 1.74h-.041c-.922 0-1.2-.14-1.293-.187-.186-.093-.319-.393-.38-.63L.663 2.368C.422 1.51.75 1.16.856 1.046c.337-.36.716-.374 2.266-.374h43.773" transform="translate(-21 -71) translate(21 71) translate(6 11)"/>
                    <path fill="#FFF" d="M39.077 6.144h-1.624c-.05 0-.09-.043-.09-.097v-.643H36.27v.643c0 .054-.041.097-.092.097h-1.622c-.051 0-.092-.043-.092-.097V4.32c0-.53.405-.96.903-.96h2.898c.498 0 .903.43.903.96v1.727c0 .054-.04.097-.09.097zm-2.885-1.3h1.152v-.807c0-.015-.011-.027-.026-.027h-1.1c-.014 0-.026.012-.026.027v.808z" transform="translate(-21 -71) translate(21 71) translate(6 11)"/>
                    <path fill="#000" d="M38.265 3.298c.519 0 .94.46.941 1.026v1.76c0 .08-.06.145-.134.145h-1.614c-.074 0-.133-.065-.134-.145v-.61h-1v.61c0 .08-.06.145-.134.145h-1.613c-.074 0-.134-.065-.134-.145v-1.76c0-.566.421-1.026.94-1.026h2.882zm0 .094h-2.882c-.471 0-.853.418-.855.932v1.76c0 .028.021.051.049.051h1.613c.027 0 .048-.023.048-.051V5.38h1.173v.703c0 .028.02.051.047.051h1.614c.026 0 .048-.023.048-.051v-1.76c0-.514-.384-.931-.855-.932zm-.926.606c.04.001.072.034.072.074V4.9h-1.248v-.828c0-.04.031-.073.071-.074h1.105zm-.015.094h-1.056v.714h1.056v-.714z" transform="translate(-21 -71) translate(21 71) translate(6 11)"/>
                    <path fill="#FFF" d="M32.448 6.144h-2.046l-.01-.01-.697-.73h-.306v.643c0 .053-.042.097-.093.097h-1.65c-.052 0-.094-.044-.094-.097v-2.59c0-.054.042-.097.093-.097h3.714c.452 0 .919.36.919.96v.123c0 .465-.305.8-.622.91.11.118.477.481.73.73l.062.061zm-3.072-1.248h.924c.16 0 .324-.137.324-.365v-.135c0-.236-.167-.364-.324-.364h-.924v.864z" transform="translate(-21 -71) translate(21 71) translate(6 11)"/>
                    <path fill="#000" d="M32.497 6.229H30.4l-.014-.014-.01-.01-.694-.73h-.248v.608c0 .08-.062.146-.139.146H27.62c-.077 0-.139-.065-.14-.146V3.444c.001-.08.063-.146.14-.146h3.77c.481.001.978.385.978 1.026v.125c0 .464-.282.806-.595.945.148.152.465.468.69.691l.064.063-.03.034v-.047.047l.03-.034.084.08h-.114v.001zm-.113-.094c-.256-.253-.612-.608-.724-.726l-.05-.055.068-.023c.306-.106.601-.431.6-.882v-.125c0-.585-.45-.931-.888-.932h-3.77c-.013 0-.026.006-.035.016-.01.01-.015.023-.015.036v2.639c0 .029.023.052.05.052h1.676c.027 0 .05-.023.05-.052V5.38h.373l.72.754h1.945zM29.39 4.9h-.045v-.901h.968c.177 0 .369.138.369.387v.126c0 .24-.188.387-.37.387h-.922zm.923-.094c.138-.001.28-.11.28-.294v-.126c0-.193-.143-.292-.28-.294h-.879v.714h.879z" transform="translate(-21 -71) translate(21 71) translate(6 11)"/>
                    <path fill="#FFF" d="M24.274 6.229h-1.648c-.05 0-.092-.045-.092-.1V4.06h-1.556c-.05 0-.092-.045-.092-.1v-.51c0-.056.041-.101.092-.101h4.944c.052 0 .093.045.093.1v.51c0 .056-.041.101-.093.101h-1.555v2.07c0 .055-.041.099-.093.099" transform="translate(-21 -71) translate(21 71) translate(6 11)"/>
                    <path fill="#000" d="M22.64 6.229c-.074 0-.134-.065-.134-.145V4.092H21.02c-.074 0-.134-.065-.134-.146v-.502c0-.081.06-.146.134-.146h4.86c.075 0 .135.065.135.146v.502c0 .08-.06.146-.134.146h-1.486v1.992c0 .08-.06.145-.135.145v-.094c.027 0 .048-.023.048-.051V3.998h1.573c.026 0 .048-.023.048-.052v-.502c0-.03-.022-.053-.048-.053h-4.862c-.026 0-.047.023-.047.053v.502c0 .029.022.052.048.052h1.572v2.086c0 .028.021.051.048.051h1.62v.094h-1.62z" transform="translate(-21 -71) translate(21 71) translate(6 11)"/>
                    <path fill="#FFF" d="M19.325 6.229h-4.207c-.053 0-.095-.045-.095-.1v-2.68c0-.055.042-.1.095-.1h4.207c.053 0 .095.045.095.1v.51c0 .056-.042.101-.095.101h-2.43v.437h2.43c.053 0 .095.045.095.1v.383c0 .056-.042.1-.095.1h-2.43v.438h2.43c.053 0 .095.045.095.1v.51c0 .057-.042.101-.095.101" transform="translate(-21 -71) translate(21 71) translate(6 11)"/>
                    <path fill="#000" d="M15.16 6.229c-.075 0-.137-.065-.137-.146v-2.64c0-.08.061-.145.137-.145h4.123c.075 0 .137.065.137.146v.502c0 .08-.062.146-.137.146h-2.337v.337h2.337c.076 0 .137.065.137.146v.377c0 .08-.062.146-.137.146h-2.337v.336h2.337c.076 0 .137.066.137.146v.503c0 .08-.062.145-.137.146v-.094c.027 0 .049-.023.049-.052V5.58c0-.029-.022-.051-.049-.051h-2.425v-.525h2.425c.027 0 .049-.024.049-.052v-.377c0-.03-.022-.053-.049-.053h-2.425v-.524h2.425c.027 0 .049-.023.049-.052v-.502c0-.03-.022-.053-.049-.053H15.16c-.027 0-.05.023-.05.053v2.64c0 .028.023.051.05.051h4.123v.094H15.16z" transform="translate(-21 -71) translate(21 71) translate(6 11)"/>
                    <path fill="#FFF" d="M11.854 6.229h-3.92c-.052 0-.095-.045-.095-.1v-.51c0-.056.043-.101.095-.101h3.041V5.08H8.96c-1.079 0-1.24-.542-1.24-.865 0-.26.12-.867 1.24-.867h3.92c.052 0 .095.045.095.1v.51c0 .056-.043.101-.095.101H9.84v.437h2.015c1.08 0 1.24.542 1.24.865 0 .26-.12.867-1.24.867" transform="translate(-21 -71) translate(21 71) translate(6 11)"/>
                    <path fill="#000" d="M11.898 6.229v-.094c1.11-.007 1.195-.566 1.202-.807-.006-.3-.131-.798-1.202-.805H9.826v-.525h3.103c.027 0 .05-.023.05-.051v-.503c0-.03-.023-.053-.05-.053H8.988c-1.11.007-1.196.567-1.203.808.007.299.132.798 1.203.805h2.072v.524H7.957c-.028 0-.05.024-.051.053v.502c0 .029.022.052.05.052h3.942v.094H7.957c-.078 0-.141-.065-.141-.146v-.502c0-.081.062-.146.14-.147h3.013v-.336H8.988c-.55 0-.874-.135-1.062-.32-.188-.184-.232-.412-.231-.579 0-.136.032-.363.214-.556.182-.194.508-.346 1.078-.345h3.942c.077 0 .14.065.14.146v.503c0 .08-.063.145-.14.145H9.916v.337h1.982c.55 0 .874.135 1.062.32.188.184.231.412.23.579 0 .135-.031.362-.213.556-.182.193-.508.345-1.077.345h-.002z" transform="translate(-21 -71) translate(21 71) translate(6 11)"/>
                </g>
            </g>
        </g>
    </g>
</svg>
