<svg xmlns="http://www.w3.org/2000/svg" width="24" height="24" viewBox="0 0 32 32">
    <g fill="none" fill-rule="evenodd">
        <g fill-rule="nonzero">
            <g>
                <g>
                    <path fill="#000" d="M27.402 0c.213 0 .412.109.518.296.073.127.095.26.07.41-.018.108-.432 1.764-.86 2.877-.175.458-.32.792-.372.894-.123.25-.358.424-.664.473-3.212.518-17.357 1.006-23.69 1.035-.579.002-.812-.084-.936-.148-.26-.131-.367-.457-.401-.595L.064 1.449C-.101.856.084.52.258.332.55.014.875 0 1.715 0h25.687zm-.05.214H1.793C.917.214.668.233.428.489.21.72.159 1.03.272 1.433l1 3.727c.023.09.11.38.316.483.11.055.314.128.834.128h.025c6.662-.03 20.438-.516 23.576-1.014.248-.04.441-.174.543-.378.049-.097.191-.417.365-.865.415-1.066.829-2.688.848-2.796.018-.109.002-.202-.05-.295-.075-.129-.22-.21-.378-.21z" transform="translate(-480 -24) translate(480 24) translate(2 13)"/>
                    <path fill="#9C1006" d="M27.355.392c.095 0 .176.044.219.118.032.056.04.106.03.17-.028.143-.434 1.727-.841 2.773-.179.46-.319.772-.359.852-.075.15-.22.25-.409.28-3.224.512-17.62.988-23.606 1.015h-.024c-.538 0-.7-.082-.755-.109-.108-.054-.186-.23-.22-.367L.385 1.38C.246.881.436.677.5.61.696.4.917.392 1.821.392h25.534" transform="translate(-480 -24) translate(480 24) translate(2 13)"/>
                    <path fill="#FFF" d="M22.795 3.584h-.947c-.03 0-.053-.025-.053-.056v-.376h-.638v.376c0 .03-.024.056-.053.056h-.947c-.03 0-.053-.025-.053-.056V2.52c0-.309.236-.56.527-.56h1.69c.29 0 .527.251.527.56v1.008c0 .03-.024.056-.053.056zm-1.683-.758h.672v-.471c0-.01-.007-.016-.015-.016h-.642c-.008 0-.015.007-.015.016v.471z" transform="translate(-480 -24) translate(480 24) translate(2 13)"/>
                    <path fill="#000" d="M22.321 1.924c.303 0 .549.268.55.598V3.55c-.001.047-.036.085-.079.085h-.941c-.044 0-.078-.038-.079-.085v-.355h-.583v.355c0 .047-.035.085-.078.085h-.941c-.043 0-.078-.038-.078-.085V2.522c0-.33.245-.598.548-.598h1.681zm0 .054h-1.68c-.276.001-.499.244-.5.544V3.55c0 .017.013.03.029.03h.941c.016 0 .028-.014.028-.03v-.41h.684v.41c0 .017.012.03.028.03h.941c.015 0 .028-.014.028-.03V2.522c0-.3-.224-.543-.499-.544zm-.54.354c.023 0 .042.02.042.043v.483h-.728v-.483c0-.023.018-.042.042-.043h.644zm-.009.055h-.616v.417h.616v-.417z" transform="translate(-480 -24) translate(480 24) translate(2 13)"/>
                    <path fill="#FFF" d="M18.928 3.584h-1.194l-.005-.006-.407-.426h-.178v.375c0 .031-.025.057-.055.057h-.963c-.03 0-.054-.026-.054-.057v-1.51c0-.032.025-.057.054-.057h2.167c.263 0 .536.21.536.56v.072c0 .271-.178.466-.363.53.065.07.278.281.425.426l.037.036zm-1.792-.728h.539c.093 0 .189-.08.189-.213v-.079c0-.138-.097-.212-.19-.212h-.538v.504z" transform="translate(-480 -24) translate(480 24) translate(2 13)"/>
                    <path fill="#000" d="M18.957 3.634h-1.223l-.008-.009-.006-.006-.405-.426h-.144v.355c0 .047-.037.085-.082.086h-.977c-.045 0-.081-.039-.081-.086V2.01c0-.047.036-.085.08-.085h2.2c.28 0 .57.224.57.598v.073c0 .27-.164.47-.347.551.086.09.271.274.403.404l.037.036-.018.02v-.027.027l.018-.02.049.048h-.066zm-.067-.055c-.149-.148-.356-.355-.421-.424l-.03-.032.04-.013c.178-.062.35-.252.35-.515v-.073c0-.34-.263-.543-.518-.543h-2.2c-.007 0-.015.003-.02.009-.005.006-.008.013-.008.021v1.54c0 .016.013.03.029.03h.977c.016 0 .03-.014.03-.03v-.41h.217l.42.44h1.134zm-1.745-.72h-.027v-.526h.565c.103 0 .215.08.215.225v.074c0 .14-.11.226-.215.226h-.538zm.538-.056c.08 0 .163-.063.163-.171v-.074c0-.112-.083-.17-.163-.17h-.512v.415h.512z" transform="translate(-480 -24) translate(480 24) translate(2 13)"/>
                    <path fill="#FFF" d="M14.16 3.634h-.961c-.03 0-.054-.026-.054-.059V2.368h-.908c-.03 0-.054-.026-.054-.058v-.298c0-.032.025-.058.054-.058h2.884c.03 0 .055.026.055.058v.298c0 .032-.025.058-.055.058h-.907v1.207c0 .033-.024.059-.054.059" transform="translate(-480 -24) translate(480 24) translate(2 13)"/>
                    <path fill="#000" d="M13.207 3.634c-.043 0-.079-.038-.079-.085V2.387h-.867c-.043 0-.078-.038-.078-.085v-.293c0-.047.035-.085.078-.085h2.836c.043 0 .079.038.079.085v.293c0 .047-.036.085-.079.085h-.867v1.162c0 .047-.035.084-.078.085v-.055c.015 0 .028-.014.028-.03V2.332h.917c.016 0 .028-.013.028-.03v-.293c0-.017-.012-.03-.028-.03h-2.836c-.015 0-.028.013-.028.03v.293c0 .017.013.03.028.03h.918V3.55c0 .016.012.03.028.03h.945v.055h-.945z" transform="translate(-480 -24) translate(480 24) translate(2 13)"/>
                    <path fill="#FFF" d="M11.273 3.634H8.82c-.03 0-.056-.026-.056-.059V2.012c0-.032.025-.058.056-.058h2.454c.03 0 .055.026.055.058v.298c0 .032-.024.058-.055.058H9.856v.255h1.417c.03 0 .055.026.055.059v.223c0 .032-.024.059-.055.059H9.856v.255h1.417c.03 0 .055.026.055.058v.298c0 .033-.024.059-.055.059" transform="translate(-480 -24) translate(480 24) translate(2 13)"/>
                    <path fill="#000" d="M8.843 3.634c-.044 0-.08-.038-.08-.085v-1.54c0-.047.036-.085.08-.085h2.406c.043 0 .08.038.08.085v.293c0 .047-.037.085-.08.085H9.885v.196h1.364c.044 0 .08.038.08.086v.22c0 .046-.037.085-.08.085H9.885v.196h1.364c.044 0 .08.038.08.085v.293c0 .047-.037.085-.08.085V3.58c.015 0 .028-.014.028-.03v-.294c0-.017-.013-.03-.028-.03H9.834v-.306h1.415c.015 0 .028-.014.028-.03v-.22c0-.018-.013-.031-.028-.031H9.834v-.306h1.415c.015 0 .028-.013.028-.03v-.293c0-.017-.013-.03-.028-.03H8.843c-.016 0-.028.013-.028.03v1.54c0 .016.012.03.028.03h2.406v.055H8.843z" transform="translate(-480 -24) translate(480 24) translate(2 13)"/>
                    <path fill="#FFF" d="M6.915 3.634H4.628c-.03 0-.055-.026-.055-.059v-.297c0-.033.025-.06.055-.06h1.774v-.254H5.226c-.63 0-.723-.316-.723-.505 0-.152.07-.505.723-.505h2.287c.03 0 .055.026.055.058v.298c0 .032-.025.058-.055.058H5.739v.255h1.176c.63 0 .724.316.724.505 0 .152-.07.506-.724.506" transform="translate(-480 -24) translate(480 24) translate(2 13)"/>
                    <path fill="#000" d="M6.94 3.634v-.055c.647-.004.698-.33.702-.471-.004-.175-.077-.466-.702-.47H5.732v-.306h1.81c.016 0 .029-.013.029-.03V2.01c0-.017-.014-.03-.03-.03H5.244c-.647.003-.698.33-.702.47.004.175.077.466.702.47h1.209v.306h-1.81c-.017 0-.03.014-.03.03v.294c0 .016.013.03.03.03H6.94v.055H4.641c-.045 0-.082-.038-.082-.085v-.294c0-.047.037-.085.082-.085H6.4v-.196H5.243c-.32 0-.51-.08-.62-.187-.11-.107-.135-.24-.134-.338 0-.079.018-.211.124-.324.107-.113.297-.202.63-.201h2.299c.045 0 .082.038.082.085v.293c0 .047-.037.085-.082.085H5.784v.196H6.94c.32 0 .51.08.62.187.11.108.135.24.135.338 0 .079-.019.211-.125.324-.106.113-.296.202-.628.202H6.94z" transform="translate(-480 -24) translate(480 24) translate(2 13)"/>
                </g>
            </g>
        </g>
    </g>
</svg>
