<svg xmlns="http://www.w3.org/2000/svg" width="24" height="24" viewBox="0 0 32 32">
    <g fill="none" fill-rule="evenodd">
        <g>
            <g>
                <g>
                    <path fill="#EDAE38" d="M19.907 2.33c2.755 1.81 6.768 7.398 7.791 10.467-1.023 3.148-5.036 8.657-7.79 10.468V2.33" transform="translate(-304 -24) translate(304 24) translate(2 3)"/>
                    <path fill="#B4B5B3" d="M14.004 6.344c1.417 0 3.306.551 4.723 1.574V1.622C17.31.756 15.578.206 13.454.206 6.527.206.862 5.872.862 12.796c0 7.005 5.665 12.593 12.592 12.593 2.124 0 3.856-.472 5.273-1.417v-6.295C17.31 18.7 15.42 19.33 14.004 19.33c-3.934 0-6.768-2.912-6.768-6.533 0-3.62 2.833-6.453 6.768-6.453" transform="translate(-304 -24) translate(304 24) translate(2 3)"/>
                </g>
            </g>
        </g>
    </g>
</svg>
