<svg xmlns="http://www.w3.org/2000/svg" width="24" height="24" viewBox="0 0 32 32">
    <g fill="none" fill-rule="evenodd">
        <g>
            <g>
                <g>
                    <path fill="#FEFEFE" fill-rule="nonzero" d="M25.876.045H20.87s-2.675 5.916-2.713 5.992h-.42c-.039-.076-2.522-5.992-2.522-5.992h-4.432S8.3 5.96 8.3 6.037h-.458c0-.076-2.713-5.992-2.713-5.992H.01L5.36 11.3h6.15s1.3-3.112 1.338-3.189h.306c.038.077 1.337 3.189 1.337 3.189h6.19L25.99.045h-.114z" transform="translate(-360 -24) translate(360 24) translate(3 10)"/>
                    <path stroke="#0E0F0D" stroke-width=".682" d="M25.876.045H20.87s-2.675 5.916-2.713 5.992h-.42c-.039-.076-2.522-5.992-2.522-5.992h-4.432S8.3 5.96 8.3 6.037h-.458c0-.076-2.713-5.992-2.713-5.992H.01L5.36 11.3h6.15s1.3-3.112 1.338-3.189h.306c.038.077 1.337 3.189 1.337 3.189h6.19L25.99.045h-.114z" transform="translate(-360 -24) translate(360 24) translate(3 10)"/>
                    <path fill="#0E0F0D" fill-rule="nonzero" d="M21.138.506l-2.713 5.992h-1.031l-.917-2.266c.534-.384.993-.73.993-.73h-1.299L14.911.506h-3.822L9.83 3.502h-1.3s.459.346.994.73l-.917 2.266h-1.07L4.823.506H.773L5.626 10.8h5.578l1.337-3.189h.917l1.337 3.19h5.579L25.226.505h-4.088z" transform="translate(-360 -24) translate(360 24) translate(3 10)"/>
                    <path fill="#FEFEFE" fill-rule="nonzero" d="M13 .66l.955 2.996h3.133S14.91 5.23 14.566 5.5c.115.384.956 2.958.956 2.958S13.344 6.883 13 6.614c-.344.269-2.522 1.844-2.522 1.844s.84-2.574.955-2.958c-.344-.27-2.521-1.844-2.521-1.844h3.133L13 .659z" transform="translate(-360 -24) translate(360 24) translate(3 10)"/>
                    <path fill="#B62057" fill-rule="nonzero" d="M14.07 5.346L15.827 4.04 13.688 4.04 13 1.965 12.312 4.04 10.172 4.04 11.93 5.346 11.242 7.42 13 6.114 14.757 7.42z" transform="translate(-360 -24) translate(360 24) translate(3 10)"/>
                </g>
            </g>
        </g>
    </g>
</svg>
