<svg xmlns="http://www.w3.org/2000/svg" width="32" height="32" viewBox="0 0 32 32">
    <path fill="#030303" fill-rule="evenodd" d="M6.791 18.252h18.415v-1.406H6.791v1.406zm-1.01.12c.774.355 2.96 1.053 3.717 1.053.029 0 .663-.568 1.195-.533 1.976.137 3.636.206 5.305.206 1.67 0 3.33-.069 5.304-.206.524-.035 1.169.533 1.197.533.762 0 2.886-.667 3.661-1.021.031-1.148.049-2.285.053-3.42.007-2.533-.054-5.072-.184-7.703-2.859-.157-6.453-.237-10.047-.237-3.601 0-7.199.079-10.053.236-.146 2.631-.215 5.169-.207 7.699.004 1.125.024 2.254.058 3.392zm.262 5.238c1.336.176 2.702.273 4.048.33-.072-.18-.21-.497-.347-.635-.312-.318-3.106-1.093-3.797-1.21.029.501.06 1.006.096 1.515zM1.528 10.732L1.5 7.933c-.01-.965.702-1.766 1.646-1.855.456-.043.951-.083 1.48-.12.05-.767.105-1.543.167-2.328.068-.872.708-1.594 1.57-1.7 2.344-.287 5.984-.43 9.616-.43 3.653.003 7.305.145 9.642.43.87.106 1.51.835 1.572 1.716.054.78.103 1.55.146 2.313.541.037 1.047.077 1.511.12.936.088 1.65.881 1.65 1.838v2.81h-1.381v-2.81c0-.229-.168-.422-.393-.443-.437-.04-.875-.076-1.313-.107.124 2.584.183 5.096.175 7.616-.011 3.704-.165 7.39-.46 11.316v1.917c0 1.245-.996 2.284-2.226 2.284h-1.534c-1.225 0-2.225-1.043-2.225-2.284v-.806c-1.623.064-3.392.096-5.16.096-1.758 0-3.518-.032-5.132-.095v.805c0 1.241-1 2.284-2.225 2.284H7.092c-1.23 0-2.226-1.039-2.226-2.284v-1.902c-.333-3.93-.507-7.622-.52-11.335-.008-2.52.058-5.03.197-7.611-.452.032-.878.067-1.272.104-.225.021-.398.22-.395.45l.028 2.798-1.376.012zm24.4 12.877c.032-.509.06-1.013.086-1.514-.691.116-3.491.893-3.803 1.21-.099.104-.233.352-.347.636 1.353-.057 2.722-.155 4.065-.332z"/>
</svg>
