<svg xmlns="http://www.w3.org/2000/svg" width="32" height="32" viewBox="0 0 32 32">
    <path fill="#030303" fill-rule="evenodd" d="M25.334 11.56c-.625-1.177-2.002-4.055-3.288-4.36-.884-.21-3.465-.316-6.063-.316-2.6 0-5.18.106-6.064.315-1.29.307-2.656 3.183-3.286 4.36 3.118-.126 6.226-.309 9.35-.309 3.123 0 6.232.182 9.35.31zm3.745 5.884c-.004-.897-.137-1.728-.59-2.513l-2.547 1.614c-.055.574-.21 1.12-.447 1.644 1.266.038 2.465-.1 3.584-.745zm-21.627-.647c.114.54.352 1.05.649 1.51 2.305 1.531 5.17 1.694 7.882 1.694 2.691 0 5.58-.165 7.882-1.694.297-.462.533-.97.648-1.51-2.844-.173-5.678-.458-8.53-.458-2.852 0-5.687.285-8.53.458zM6.47 18.19c-.238-.522-.391-1.07-.446-1.644L3.476 14.93c-.453.786-.587 1.617-.59 2.514 1.118.644 2.32.782 3.584.744zm-3.41-6.902l.334-1.341 2.24.562c.814-1.535 2.141-4.22 3.973-4.655.99-.235 3.692-.353 6.376-.353 2.683 0 5.386.118 6.375.353 1.726.41 2.96 2.738 3.954 4.612l2.26-.519.333 1.341-1.868.495c.864.498 1.68 1.097 2.303 1.936.674.907 1.109 2.072 1.112 3.65.006 2.322.013 4.638.013 6.96 0 1.144-.925 2.092-2.069 2.092h-2.758c-1.138 0-2.07-.954-2.07-2.091v-1.067c-.503.076-.982.127-1.425.136-2.164.043-4.207.065-6.16.065-1.954 0-3.996-.022-6.161-.065-.443-.009-.922-.06-1.426-.136v1.07c0 1.135-.932 2.09-2.068 2.09h-2.76c-1.143 0-2.068-.946-2.068-2.09 0-2.323.007-4.64.013-6.965.004-1.577.438-2.742 1.112-3.649.623-.838 1.44-1.438 2.304-1.936l-1.869-.495z"/>
</svg>
