<svg xmlns="http://www.w3.org/2000/svg" width="24" height="24" viewBox="0 0 32 32">
    <path fill="#030303" fill-rule="evenodd" d="M23.384 1c2.444 0 3.038 3.455 3.435 5.296h1.454c.862 0 1.52.759 1.52 1.598v3.882c0 .839-.658 1.598-1.52 1.598h-.955l-.094 3.987c-.005.3-.146.685-.36.798.107.092.42.388.465.91l.243 2.87-.443 4.945v2.19c0 1.01-.83 1.856-1.843 1.856h-2.458c-1.017 0-1.843-.843-1.843-1.856v-.413c-1.572.053-3.298.08-5.089.08-1.79 0-3.515-.027-5.086-.08v.413c0 1.014-.826 1.856-1.844 1.856H6.508c-1.012 0-1.843-.848-1.843-1.856v-2.165l-.444-4.97.242-2.868c.044-.521.39-.852.466-.912-.182-.123-.355-.525-.36-.798l-.094-3.987h-.956c-.861 0-1.519-.759-1.519-1.598V7.894c0-.84.657-1.598 1.52-1.598h1.454C5.37 4.455 5.965 1 8.409 1h14.975zm-4.149 24.743l-3.339.001h-3.338c-.622.033-.735.269-.981.794l-.426.909c1.486.046 3.092.07 4.745.07s3.26-.024 4.746-.07l-.426-.91c-.247-.525-.36-.76-.981-.794zm-11.511-3.92l-1.196.278.456 1.932c.15.638.6 1.127 1.224 1.33l1.075.35.38-1.167-1.076-.35c-.215-.07-.356-.221-.408-.442l-.455-1.932zm16.345 0l-.456 1.931c-.052.22-.192.373-.407.443l-1.075.35.379 1.166 1.075-.35c.624-.203 1.073-.692 1.224-1.33l.455-1.932-1.195-.279zm-.146-5.795l-1.696 4.977c-.068.203-.298.3-.495.324-1.849.23-4.037.728-5.836.728-1.799 0-3.987-.499-5.835-.728-.198-.025-.427-.12-.496-.324L7.87 16.028l-1.161.394 1.696 4.976c.225.66.832 1.066 1.508 1.15 1.908.236 4.118.738 5.984.738 1.867 0 4.077-.502 5.985-.738.676-.084 1.283-.49 1.508-1.15l1.696-4.976-1.162-.394zm1.701-8.503H6.17l-.038 3.954-.444 1.371.006.273c.066.192.654.33 1.914.459 1.684.172 4.379.197 8.29.197 2.672 0 5.634.074 8.289-.197 1.259-.129 1.847-.267 1.914-.459l.006-.273-.444-1.371-.038-3.954z"/>
</svg>
