<svg xmlns="http://www.w3.org/2000/svg" width="32" height="32" viewBox="0 0 32 32">
    <path fill="#030303" fill-rule="evenodd" d="M25.476 19.468H5.846l-.042 2.3h19.7l-.028-2.3zm-.016-1.357l-.014-1.193-2.454-.9c-.11-.041-.23-.053-.346-.033-.81.134-3.096.482-3.93.482-1.064 0-3.33.023-3.346.024h-3.346c-1.018 0-1.018 0-3.798-.46l-.132-.022c-.127-.021-.257-.006-.375.044l-1.824.767-.02 1.093 2.19-.922c2.722.45 2.838.468 3.959.468h3.353c.023 0 2.282-.024 3.34-.024.971 0 3.304-.363 3.973-.47l2.684 1.146h.086zM5.023 11.86h-.031c-.21.002-.413.004-.61.004-1.288 0-2.306-.072-2.912-.67-.312-.31-.47-.715-.47-1.206v-3.7c0-.535.19-.998.548-1.34.662-.63 1.67-.627 1.855-.62h1.841c.007-.396.09-1.09.536-1.618.328-.388.792-.612 1.34-.65 1.166-.079 16.647-.079 17.813 0 .548.038 1.012.263 1.34.65.447.528.53 1.222.536 1.617h1.784c.185-.006 1.193-.008 1.854.621.359.342.549.805.549 1.34v3.7c0 .49-.159.896-.47 1.205-.606.6-1.624.671-2.913.671l-.583-.003.092 2.93 2.086.574-.12 7.76h-1.865v4.265c.003.173-.003 1.28-.697 1.992-.364.374-.852.571-1.413.571H23.44c-.785 0-1.394-.206-1.804-.613-.6-.594-.6-1.416-.6-1.857v-4.358h-10.02v4.358c0 .441 0 1.263-.599 1.857-.416.412-1.037.614-1.84.613H6.94c-.56 0-1.05-.197-1.413-.57-.694-.713-.7-1.82-.697-1.993v-4.265H2.964l-.12-7.76 2.087-.575.092-2.93zm.199-6.37H3.857c-.331 0-.43.176-.43.493v2.292H1.68v.775h1.747v1.106c-.016.363.127.544.43.542.304-.002.678-.002 1.123 0h.079l.163-5.209zm1.171 6.034H25.66l-.218-6.986.004-.045c.014-.152.004-.656-.213-.91-.06-.07-.16-.153-.393-.17-.203-.013-.846-.024-1.773-.033-.967.629-3.123 1.948-4.206 1.948h-6.798c-1.074 0-3.206-1.3-4.183-1.934-.33.006-.56.013-.667.02-.233.016-.332.099-.393.169-.217.254-.227.758-.213.914l.004.04-.001.045-.217 6.942zm20.438-6.035l.163 5.209h.021c.446-.002.82-.002 1.123 0 .303.002.447-.179.43-.542V9.05h1.748v-.775h-1.748V5.982c0-.317-.098-.494-.43-.494h-1.307zm-18.61 15.13c0 .188-.075.37-.208.502-.134.134-.315.209-.504.209-.19 0-.37-.075-.504-.209-.134-.133-.209-.314-.209-.502 0-.393.32-.711.713-.711.393 0 .712.318.712.71zm16.333 0c0 .188-.075.37-.209.502-.133.134-.314.209-.503.209-.394 0-.713-.319-.713-.711 0-.393.319-.711.713-.711.393 0 .712.318.712.71z"/>
</svg>
