<svg xmlns="http://www.w3.org/2000/svg" width="24" height="24" viewBox="0 0 32 32">
    <path fill="#030303" fill-rule="evenodd" d="M22.94 1.22c1.732.234 2.6.741 3.111 1.759.39.773.734 1.569 1.029 2.383 1.096.123 1.922.282 2.29.483l-.782 1.425c-.145-.08-.487-.153-.974-.22.439 1.602.644 3.035.82 4.267.152 1.06.281 1.961.517 2.628l.573 1.623c.191.54.2.92.208 1.29.007.295.014.581.245 1.016.484.909.978 1.847.932 2.91l-.172 4.025.001 3.405c.006 1.287-1.05 2.358-2.339 2.358h-3.056c-1.285 0-2.341-1.078-2.341-2.358 0-.024-.754.016-.847.018-.844.014-1.692.424-2.622.432l-3.577.018-3.577-.018c-.93-.008-1.777-.418-2.621-.432-.283-.006-.565-.017-.847-.035 0 1.29-1.043 2.375-2.342 2.375H3.513c-1.29 0-2.342-1.072-2.342-2.358l.004-3.406-.172-4.025c-.046-1.075.451-2.007.911-2.868.208-.391.257-.622.266-1.056.008-.37.017-.75.208-1.29l.573-1.624c.236-.667.366-1.569.517-2.628.176-1.232.382-2.666.82-4.267-.487.067-.828.14-.974.22l-.782-1.425c.368-.201 1.195-.36 2.29-.483.295-.814.639-1.61 1.03-2.383.512-1.018 1.38-1.525 3.111-1.759 1.492-.202 3.664-.208 6.983-.208 2.21 0 4.8-.087 6.983.208zm-1.6 24.964c-1.453.026-3.302.06-5.384.06-2.082 0-3.93-.034-5.384-.06-2.256-.04-3.398-.06-4.077.102 1.082.177 2.191.306 3.288.324.908.016 1.764.425 2.61.432l3.563.019 3.564-.019c.845-.007 1.702-.417 2.61-.432 1.095-.018 2.206-.146 3.287-.324-.679-.162-1.82-.142-4.077-.102zm-5.384-8.125c-2.283 0-5.212.124-7.357.696-.97.259-1.504.847-1.584 1.57-.085.761.35 1.661 1.075 2.229 1.483 1.164 5.746 1.248 7.866 1.248h.235c2.186-.008 6.202-.126 7.631-1.248.725-.568 1.16-1.468 1.075-2.228-.08-.724-.614-1.312-1.584-1.571-2.145-.572-5.074-.696-7.357-.696zm0-11.502c-3.285 0-6.637.066-9.913.317-.539 1.762-.765 3.34-.956 4.672-.08.557-.154 1.075-.242 1.552 3.694.15 7.415.233 11.111.233 3.697 0 7.418-.083 11.112-.233-.089-.477-.163-.995-.243-1.552-.19-1.331-.417-2.91-.955-4.672-3.273-.254-6.632-.317-9.914-.317z"/>
</svg>
